<svg xmlns="http://www.w3.org/2000/svg" fill="none" viewBox="0 0 360 480"><path fill="#fff" d="m180 0 180 240-180 240L0 240 180 0Z"/><path fill="#000" fill-rule="evenodd" d="M180 0 0 240l180 240v-80l180-160L180 80V0Zm0 320L0 240l180-80v160Zm0 0 180-80-180-80V80L0 240l180 160v-80Z" clip-rule="evenodd"/><path fill="#000" fill-opacity=".65" d="m180 0 180 240-180 240L0 240 180 0Z"/><path fill="url(#a)" d="m180 0 180 240-180 240L0 240 180 0Z" style="mix-blend-mode:screen"/><defs><linearGradient id="a" x1="180" x2="180" y1="0" y2="480" gradientUnits="userSpaceOnUse"><stop stop-color="#000582"/><stop offset="1" stop-color="#CC003D"/><stop offset="1" stop-color="#FF004D"/></linearGradient></defs></svg>